/* XPM */
static char *_8d28c520d0e433eea3bf00ae35176aadOJAVzGx1vMgPnIB[] = {
/* columns rows colors chars-per-pixel */
"64 64 121 2 ",
"   c None",
".  c #032B0F",
"X  c #032C0F",
"o  c #032D0F",
"O  c #022E0F",
"+  c #042F10",
"@  c #033311",
"#  c #033411",
"$  c #043713",
"%  c #043C13",
"&  c #033F14",
"*  c #043E15",
"=  c #044015",
"-  c #044216",
";  c #054316",
":  c #054317",
">  c #044416",
",  c #054C19",
"<  c #064D19",
"1  c #05521B",
"2  c #05551C",
"3  c #06551C",
"4  c #05571D",
"5  c #06571D",
"6  c #06581D",
"7  c #06591E",
"8  c #065A1E",
"9  c #065B1E",
"0  c #065C1E",
"q  c #065C1F",
"w  c #065F1F",
"e  c #06611F",
"r  c #076020",
"t  c #066120",
"y  c #076120",
"u  c #066420",
"i  c #076421",
"p  c #066522",
"a  c #086722",
"s  c #076822",
"d  c #076922",
"f  c #076C23",
"g  c #076C24",
"h  c #076D24",
"j  c #076F25",
"k  c #086F25",
"l  c #087025",
"z  c #087126",
"x  c #087527",
"c  c #087A28",
"v  c #097D29",
"b  c #097F2A",
"n  c #09812A",
"m  c #09822A",
"M  c #08822B",
"N  c #09842B",
"B  c #09852B",
"V  c #09842C",
"C  c #09852C",
"Z  c #09862C",
"A  c #09872C",
"S  c #09882D",
"D  c #09892D",
"F  c #098A2D",
"G  c #098B2D",
"H  c #098D2E",
"J  c #088E2F",
"K  c #098F2F",
"L  c #09902F",
"P  c #099030",
"I  c #0A9230",
"U  c #0A9531",
"Y  c #0A9732",
"T  c #0A9832",
"R  c #0B9A33",
"E  c #0B9B33",
"W  c #0B9C33",
"Q  c #0A9B34",
"!  c #0B9C34",
"~  c #0A9D34",
"^  c #0B9D34",
"/  c #0B9E34",
"(  c #0B9F34",
")  c #0AA035",
"_  c #0BA135",
"`  c #0BA236",
"'  c #0BA336",
"]  c #0BA436",
"[  c #0AA536",
"{  c #0BA536",
"}  c #0BA537",
"|  c #0AA636",
" . c #0BA937",
".. c #0BA938",
"X. c #0BAA38",
"o. c #0CAB38",
"O. c #0BAD39",
"+. c #0CAC39",
"@. c #0CAE39",
"#. c #0CAE3A",
"$. c #0CB33B",
"%. c #0BB73B",
"&. c #0CB43B",
"*. c #0CB83D",
"=. c #0CB93E",
"-. c #0CBB3E",
";. c #0DBB3E",
":. c #0CBC3D",
">. c #0CBC3E",
",. c #0CBD3E",
"<. c #0CBF3E",
"1. c #0CC13F",
"2. c #0DC140",
"3. c #0DC440",
"4. c #0DC842",
"5. c #0DC942",
"6. c #0DCC43",
"7. c #0ECD44",
"8. c #0ECF45",
"9. c #0ED045",
"0. c #0ED145",
/* pixels */
"                                                                                                                                ",
"                                                                                                                                ",
"                                                                                                                                ",
"                                                                                                                                ",
"                                                                                                                                ",
"                                                                                                                                ",
"                                                                                                                                ",
"                                                                                                                                ",
"                                                                                                                                ",
"                                                                                                                                ",
"                                                                                                                                ",
"                                            ; x C C C C C C C C C C C C C v s                                                   ",
"                                            q ` ;.;.;.;.;.;.;.;.;.;.;.;.;.&.Y                                                   ",
"                                            p $.9.9.9.9.9.9.9.9.9.9.9.9.7.5.X.                                                  ",
"                                            p &.9.9.9.9.9.9.9.9.9.9.9.9.9.5.X.                                                  ",
"                                            p &.9.9.9.9.9.9.9.9.9.9.9.9.9.5.X.                                                  ",
"                                            p &.9.9.9.9.9.9.9.9.9.9.9.9.9.5.X.                                                  ",
"                                            p &.9.9.9.9.9.9.9.9.9.9.9.9.9.5.X.                                                  ",
"                                            p &.9.9.9.9.9.9.9.9.9.9.9.9.9.5.X.                                                  ",
"                                            p &.9.9.9.9.9.9.9.9.9.9.9.9.9.5.X.                                                  ",
"                                            p &.9.9.9.9.9.9.9.9.9.9.9.9.9.5.X.                                                  ",
"                                            p &.9.9.9.9.9.9.9.9.9.9.9.9.9.5.X.                                                  ",
"                                            p &.9.9.9.9.9.9.9.9.9.9.9.9.9.5.X.                                                  ",
"                                            t O.5.5.5.5.5.5.5.5.5.5.5.5.5.1.|                                                   ",
"                                            4 P | | | | | | | | | | | | | ` S +                                                 ",
"                              ; # O 9 k k h h C L L L L L L L L L L L L L J n t s k q * @ 4 4 &                                 ",
"                            q x t > v ( ( ( W ( ( ( ( ( ( ( ( ( ( ( ( ` ( ( ( E W ( S q < n v q                                 ",
"                            Y 2.` t ` 6.6.6.6.6.6.6.6.6.6.6.6.6.6.6.6.6.6.6.6.6.6.6.%.n f ;.:.J                                 ",
"                            Q 5.X.p | 9.9.9.9.9.9.9.9.9.9.9.9.9.9.9.9.9.9.9.9.9.9.9.:.C l 2.3.Y                                 ",
"                            Q 5.X.p | 9.9.9.9.9.9.9.9.9.9.9.9.9.9.9.9.9.9.9.9.9.9.9.:.C l 2.3.Y                                 ",
"                            Q 5.X.p | 9.9.9.9.9.9.9.9.9.9.9.9.9.9.9.9.9.9.9.9.9.9.9.:.C l 2.3.Y                                 ",
"                            Q 5.X.p | 9.9.9.9.9.9.9.9.9.9.9.9.9.9.9.9.9.9.9.9.9.9.9.:.C l 2.3.Y                                 ",
"                            Q 5.X.p | 9.9.9.9.9.9.9.9.9.9.9.9.9.9.9.9.9.9.9.9.9.9.9.:.C l 2.3.Y                                 ",
"                            Q 5.X.p | 9.9.9.9.9.9.9.9.9.9.9.9.9.9.9.9.9.9.9.9.9.9.9.:.C l 2.3.Y                                 ",
"                            Q 5.X.p | 9.9.9.9.9.9.9.9.9.9.9.9.9.9.9.9.9.9.9.9.9.9.9.:.C l 2.3.Y                                 ",
"                            Q 5.X.p | 9.9.9.9.9.9.9.9.9.9.9.9.9.9.9.9.9.9.9.9.9.9.9.:.C l 2.3.Y                                 ",
"                            Q 5.X.p | 9.9.9.9.9.9.9.9.9.9.9.9.9.9.9.9.9.9.9.9.9.9.9.:.C l 2.3.Y                                 ",
"                            Q 5.X.p | 9.9.9.9.9.9.9.9.9.9.9.9.9.9.9.9.9.9.9.9.9.9.9.:.C l 2.3.Y                                 ",
"                            Q 5.X.p | 9.9.9.9.9.9.9.9.9.9.9.9.9.9.9.9.9.9.9.9.9.9.9.:.C l 2.3.Y                                 ",
"                            Q 5.X.p | 9.9.9.9.9.9.9.9.9.9.9.9.9.9.9.9.9.9.9.9.9.9.9.:.C l 2.3.Y                                 ",
"                            Q 5.X.p | 9.9.9.9.9.9.9.9.9.9.9.9.9.9.9.9.9.9.9.9.9.9.9.:.C l 2.3.Y                                 ",
"                            Q 5.X.p | 9.9.9.9.9.9.9.9.9.9.9.9.9.9.9.9.9.9.9.9.9.9.9.:.C l 2.3.Y                                 ",
"                            Q 5.X.p | 9.9.9.9.9.9.9.9.9.9.9.9.9.9.9.9.9.9.9.9.9.9.9.:.C l 2.3.Y                                 ",
"                            Q 5.X.p | 9.9.9.9.9.9.9.9.9.9.9.9.9.9.9.9.9.9.9.9.9.9.9.:.B h :.:.P                                 ",
"                            Q 5.X.p | 9.9.9.9.9.9.9.9.9.9.9.9.9.9.9.9.9.9.9.9.9.9.9.:.B q E ( c                                 ",
"                            Q 5.X.p | 9.9.9.9.9.9.9.9.9.9.9.9.9.9.9.9.9.9.9.9.9.9.9.:.n ; p a <                                 ",
"                            J ;.( e | 9.9.9.9.9.9.9.9.9.9.9.9.9.9.9.9.9.9.9.9.9.9.9.:.C O                                       ",
"                            q n j 9 | 9.9.9.9.9.9.9.9.9.9.9.9.9.9.9.9.9.9.9.9.9.9.9.:.S                                         ",
"                                ; 1  .9.9.9.9.9.9.9.9.9.9.9.9.9.9.9.9.9.9.9.9.9.9.9.:.S                                         ",
"                                  4 @.9.9.9.9.9.9.9.9.9.9.9.9.9.9.9.9.9.9.9.9.9.9.9.:.S                                         ",
"                                  9 @.9.9.9.9.9.9.9.9.9.9.9.9.9.9.9.9.9.9.9.9.9.9.9.:.S                                         ",
"                                  9 @.9.9.9.9.9.9.9.9.9.9.9.9.9.9.9.9.9.9.9.9.9.9.9.:.S                                         ",
"                                  9 @.9.9.9.9.9.9.9.9.9.9.9.9.9.9.9.9.9.9.9.9.9.9.9.:.S                                         ",
"                                  9 @.9.9.9.9.9.9.9.9.9.9.9.9.9.9.9.9.9.9.9.9.9.9.9.:.S                                         ",
"                                  9 @.9.9.9.9.9.9.9.9.9.9.9.9.9.9.9.9.9.9.9.9.9.9.9.:.S                                         ",
"                                  9 @.9.9.9.9.9.9.9.9.9.9.9.9.9.9.9.9.9.9.9.9.9.9.9.:.S                                         ",
"                                  4 o.7.7.7.7.7.7.7.7.7.7.7.7.7.7.7.7.7.7.7.7.7.7.7.;.S                                         ",
"                                  ; C | | | | | | | | | | | | | | | | | | | | | | | E l                                         ",
"                                    O % % % % % % % % % % % % % % % % % % % % % % % $ .                                         ",
"                                                                                                                                ",
"                                                                                                                                ",
"                                                                                                                                ",
"                                                                                                                                ",
"                                                                                                                                "
};
